<svg width="18" height="18" viewBox="0 0 18 18" fill="none" xmlns="http://www.w3.org/2000/svg">
<path d="M9.5 12.8333C9.5 13.1094 9.27614 13.3333 9 13.3333C8.72386 13.3333 8.5 13.1094 8.5 12.8333C8.5 12.5571 8.72386 12.3333 9 12.3333C9.27614 12.3333 9.5 12.5571 9.5 12.8333Z" fill="#FFCC66"/>
<path d="M9 17.3333C13.6024 17.3333 17.3333 13.6023 17.3333 8.99996C17.3333 4.39759 13.6024 0.666626 9 0.666626C4.39763 0.666626 0.666668 4.39759 0.666668 8.99996C0.666668 13.6023 4.39763 17.3333 9 17.3333Z" fill="#FFCC66"/>
<path d="M6.575 6.49996C6.77092 5.94302 7.15763 5.47338 7.66663 5.17424C8.17563 4.87509 8.77408 4.76574 9.35598 4.86555C9.93788 4.96536 10.4657 5.2679 10.8459 5.71957C11.2261 6.17124 11.4342 6.74289 11.4333 7.33329C11.4333 8.99996 8.93333 9.83329 8.93333 9.83329" fill="#FFCC66"/>
<path d="M6.10333 6.33404L5.93741 6.8057L6.88075 7.13755L7.04667 6.66588L6.10333 6.33404ZM11.4333 7.33329L10.9333 7.33255V7.33329H11.4333ZM8.77522 9.35895L8.30088 9.51706L8.61711 10.4657L9.09145 10.3076L8.77522 9.35895ZM9 12.8333V13.8333C9.55229 13.8333 10 13.3856 10 12.8333H9ZM9 12.8333H8C8 13.3856 8.44772 13.8333 9 13.8333V12.8333ZM9 12.8333V11.8333C8.44772 11.8333 8 12.281 8 12.8333H9ZM9 12.8333H10C10 12.281 9.55229 11.8333 9 11.8333V12.8333ZM16.8333 8.99996C16.8333 13.3262 13.3262 16.8333 9 16.8333V17.8333C13.8785 17.8333 17.8333 13.8785 17.8333 8.99996H16.8333ZM9 16.8333C4.67377 16.8333 1.16667 13.3262 1.16667 8.99996H0.166668C0.166668 13.8785 4.12149 17.8333 9 17.8333V16.8333ZM1.16667 8.99996C1.16667 4.67373 4.67377 1.16663 9 1.16663V0.166626C4.12149 0.166626 0.166668 4.12144 0.166668 8.99996H1.16667ZM9 1.16663C13.3262 1.16663 16.8333 4.67373 16.8333 8.99996H17.8333C17.8333 4.12144 13.8785 0.166626 9 0.166626V1.16663ZM7.04667 6.66588C7.2034 6.22033 7.51277 5.84462 7.91997 5.6053L7.41329 4.74317C6.80249 5.10214 6.33844 5.6657 6.10333 6.33404L7.04667 6.66588ZM7.91997 5.6053C8.32717 5.36599 8.80593 5.27851 9.27145 5.35836L9.44051 4.37275C8.74223 4.25298 8.02409 4.3842 7.41329 4.74317L7.91997 5.6053ZM9.27145 5.35836C9.73697 5.4382 10.1592 5.68023 10.4634 6.04157L11.2284 5.39757C10.7722 4.85556 10.1388 4.49252 9.44051 4.37275L9.27145 5.35836ZM10.4634 6.04157C10.7676 6.4029 10.934 6.86023 10.9333 7.33255L11.9333 7.33404C11.9344 6.62556 11.6847 5.93957 11.2284 5.39757L10.4634 6.04157ZM10.9333 7.33329C10.9333 7.90119 10.5008 8.39573 9.90598 8.79227C9.6238 8.98039 9.33806 9.12362 9.12089 9.22014C9.01302 9.26808 8.92382 9.30373 8.86276 9.32699C8.83227 9.3386 8.80892 9.34708 8.79391 9.35242C8.7864 9.35509 8.78099 9.35697 8.77782 9.35806C8.77624 9.3586 8.77522 9.35895 8.77478 9.3591C8.77456 9.35917 8.77448 9.3592 8.77456 9.35917C8.77459 9.35916 8.77467 9.35914 8.77478 9.3591C8.77483 9.35908 8.77494 9.35904 8.77497 9.35903C8.77509 9.35899 8.77522 9.35895 8.93333 9.83329C9.09145 10.3076 9.0916 10.3076 9.09175 10.3075C9.09182 10.3075 9.09199 10.3075 9.09212 10.3074C9.09238 10.3073 9.09268 10.3072 9.09302 10.3071C9.0937 10.3069 9.09453 10.3066 9.09551 10.3063C9.09748 10.3056 9.10004 10.3047 9.10319 10.3036C9.10948 10.3015 9.11811 10.2985 9.12891 10.2946C9.15052 10.287 9.18088 10.2759 9.21875 10.2615C9.29441 10.2327 9.40053 10.1902 9.52703 10.1339C9.77861 10.0221 10.1179 9.85286 10.4607 9.62432C11.1159 9.18752 11.9333 8.43206 11.9333 7.33329H10.9333Z" fill="#222222"/>
</svg>
