<svg width="14" height="14" viewBox="0 0 14 14" fill="none" xmlns="http://www.w3.org/2000/svg">
<path d="M12.6464 13.3536L13 13.7071L13.7071 13L13.3536 12.6464L12.6464 13.3536ZM10.4536 9.74645C10.2583 9.55118 9.94171 9.55118 9.74645 9.74645C9.55118 9.94171 9.55118 10.2583 9.74645 10.4536L10.4536 9.74645ZM11.1667 6.33333C11.1667 9.00271 9.00271 11.1667 6.33333 11.1667V12.1667C9.55499 12.1667 12.1667 9.55499 12.1667 6.33333H11.1667ZM6.33333 11.1667C3.66396 11.1667 1.5 9.00271 1.5 6.33333H0.5C0.5 9.55499 3.11167 12.1667 6.33333 12.1667V11.1667ZM1.5 6.33333C1.5 3.66396 3.66396 1.5 6.33333 1.5V0.5C3.11167 0.5 0.5 3.11167 0.5 6.33333H1.5ZM6.33333 1.5C9.00271 1.5 11.1667 3.66396 11.1667 6.33333H12.1667C12.1667 3.11167 9.55499 0.5 6.33333 0.5V1.5ZM13.3536 12.6464L10.4536 9.74645L9.74645 10.4536L12.6464 13.3536L13.3536 12.6464Z" fill="#222222"/>
</svg>
