<svg width="16" height="20" viewBox="0 0 16 20" fill="none" xmlns="http://www.w3.org/2000/svg">
<path d="M8.91275 8.36879C8.63356 8.22695 8.28993 8.1459 7.90336 8.1459C7.62416 8.1459 7.36644 8.18642 7.1302 8.26748C6.89396 8.34853 6.70067 8.47011 6.55034 8.63222C6.4 8.79433 6.27114 8.99696 6.18524 9.21986C6.09933 9.46302 6.05638 9.70618 6.05638 9.98987C6.05638 10.2533 6.09933 10.5167 6.18524 10.7396C6.27114 10.9625 6.37852 11.1651 6.55034 11.3273C6.70067 11.4894 6.89396 11.6109 7.1302 11.7123C7.36644 11.7933 7.62416 11.8541 7.92483 11.8541C8.2255 11.8541 8.48322 11.8136 8.71946 11.7325C8.9557 11.6515 9.14899 11.5096 9.29933 11.3475C9.44967 11.1854 9.57852 10.9828 9.66443 10.7599C9.75034 10.537 9.79329 10.2938 9.79329 10.0101C9.79329 9.64539 9.72886 9.32117 9.57852 9.03749C9.40671 8.73354 9.19195 8.51064 8.91275 8.36879ZM8.84832 10.6991C8.74094 10.9017 8.61208 11.0436 8.46175 11.1246C8.28993 11.2259 8.11812 11.2665 7.92483 11.2665C7.7745 11.2665 7.62416 11.2462 7.4953 11.1854C7.36644 11.1246 7.25906 11.0436 7.15168 10.9422C7.0443 10.8409 6.97987 10.6991 6.91544 10.537C6.87248 10.3749 6.82953 10.1925 6.82953 9.98987C6.82953 9.78723 6.85101 9.60486 6.91544 9.44276C6.97987 9.28065 7.04429 9.1388 7.1302 9.03749C7.21611 8.93617 7.34497 8.85512 7.47383 8.79433C7.60269 8.73354 7.75302 8.71327 7.90336 8.71327C8.11812 8.71327 8.31141 8.7538 8.48322 8.85512C8.65503 8.95643 8.78389 9.09828 8.8698 9.28065C8.95571 9.46302 8.99866 9.70618 8.99866 9.96961C8.99866 10.2533 8.93423 10.4965 8.84832 10.6991Z" fill="#222222"/>
<path d="M15.957 3.99189L15.9356 3.97163V3.95137L11.8336 0.0810537C11.8336 0.0810537 11.8121 0.0810537 11.8121 0.0607903C11.8121 0.0607903 11.7906 0.0607903 11.7906 0.0405268C11.7262 0 11.6617 0 11.5758 0H1.4604C1.05235 0 0.687248 0.162107 0.42953 0.405268C0.171812 0.64843 0 1.01317 0 1.37791V18.6221C0 18.9868 0.150335 19.3313 0.408054 19.5745L0.42953 19.5947C0.687248 19.8379 1.07383 20 1.4604 20H14.5396C14.9477 20 15.3128 19.8379 15.5705 19.5947C15.8282 19.3516 16 18.9868 16 18.6221V4.19453C16 4.11348 15.9785 4.05268 15.957 3.99189ZM11.9839 1.45897L14.4107 3.74873H12.6282C12.4564 3.74873 12.2846 3.68794 12.1772 3.56636C12.0698 3.46505 11.9839 3.30294 11.9839 3.14083V1.45897ZM15.0765 18.6221C15.0765 18.7639 15.0121 18.8855 14.9047 18.9868C14.7973 19.0881 14.6685 19.1489 14.5181 19.1489H1.4604C1.31007 19.1489 1.18121 19.0881 1.07383 18.9868L1.05235 18.9666C0.966443 18.8652 0.902013 18.7437 0.902013 18.6221V1.35765C0.902013 1.21581 0.966443 1.09422 1.07383 0.992908C1.18121 0.891591 1.31007 0.8308 1.4604 0.8308H11.0819V3.12057C11.0819 3.52584 11.2537 3.89058 11.5544 4.17427C11.8336 4.43769 12.2416 4.5998 12.6711 4.5998H15.0765V18.6221Z" fill="#222222"/>
<path d="M11.3611 8.26748C11.1463 8.34853 10.953 8.47011 10.7812 8.63222C10.6094 8.79433 10.4805 8.99696 10.3946 9.21986C10.3087 9.44276 10.2658 9.70618 10.2658 9.98987C10.2658 10.1722 10.2872 10.3343 10.3087 10.4965C10.3517 10.6586 10.3946 10.8004 10.4591 10.9422C10.5235 11.0841 10.6094 11.2057 10.7168 11.3273C10.8242 11.4488 10.953 11.5502 11.0819 11.6312C11.2107 11.7123 11.3611 11.7528 11.5329 11.7933C11.7047 11.8338 11.8765 11.8541 12.0698 11.8541C12.3275 11.8541 12.5638 11.8136 12.757 11.7325C12.9503 11.6515 13.1221 11.5502 13.251 11.4286C13.3799 11.307 13.4658 11.1651 13.5302 11.0436C13.5946 10.9017 13.6161 10.7801 13.6161 10.6788C13.6161 10.5978 13.5732 10.5167 13.5087 10.4559C13.4443 10.3951 13.3584 10.3749 13.2725 10.3749C13.1651 10.3749 13.0792 10.3951 13.0362 10.4559C12.9933 10.5167 12.9503 10.5978 12.9074 10.6788C12.8215 10.8815 12.7141 11.0233 12.5638 11.1246C12.4134 11.2259 12.2201 11.2867 12.0054 11.2867C11.8121 11.2867 11.6188 11.2462 11.4685 11.1449C11.3181 11.0436 11.1893 10.922 11.1248 10.7396C11.0389 10.5572 10.996 10.3343 10.996 10.0507C10.996 9.64539 11.0819 9.32118 11.2752 9.09828C11.4685 8.87538 11.7047 8.7538 12.0268 8.7538C12.2201 8.7538 12.3919 8.79433 12.5208 8.87538C12.6497 8.95643 12.7785 9.09828 12.8644 9.28065C12.9289 9.38197 12.9718 9.46302 13.0362 9.50355C13.0792 9.54407 13.1651 9.56434 13.251 9.56434C13.3369 9.56434 13.4228 9.52381 13.4658 9.46302C13.5302 9.40223 13.5517 9.32117 13.5517 9.24012C13.5517 9.09828 13.4872 8.93617 13.3584 8.7538C13.2295 8.59169 13.0577 8.44985 12.8 8.32827C12.5638 8.20669 12.2846 8.1459 11.9839 8.1459C11.8336 8.1459 11.5973 8.18642 11.3611 8.26748Z" fill="#222222"/>
<path d="M4.98255 8.5309C4.83221 8.40932 4.6604 8.32827 4.46711 8.26748C4.27383 8.22695 4.05906 8.20669 3.80134 8.20669H2.81342C2.64161 8.20669 2.53423 8.24721 2.44832 8.308C2.38389 8.36879 2.34094 8.49037 2.34094 8.65248V11.2665C2.34094 11.388 2.34094 11.4691 2.38389 11.5502C2.40537 11.6312 2.44832 11.6717 2.51275 11.7123C2.57718 11.7528 2.68456 11.773 2.8349 11.773H3.82282C3.99463 11.773 4.14497 11.7528 4.2953 11.7325C4.42416 11.7123 4.55302 11.6717 4.68188 11.6312C4.81074 11.5704 4.91812 11.5096 5.00403 11.4286C5.13289 11.307 5.24027 11.1854 5.32617 11.0436C5.41208 10.9017 5.47651 10.7396 5.51946 10.5572C5.56242 10.3749 5.58389 10.1925 5.58389 9.96961C5.56242 9.34144 5.36913 8.85512 4.98255 8.5309ZM4.40268 11.0233C4.33825 11.0638 4.27383 11.1044 4.2094 11.1246C4.12349 11.1449 4.05906 11.1651 3.99463 11.1651C3.9302 11.1651 3.82282 11.1651 3.69396 11.1651H3.11409V8.77406H3.62953C3.86577 8.77406 4.05906 8.79433 4.23087 8.85512C4.40268 8.89564 4.53154 9.01722 4.63893 9.1996C4.74631 9.38197 4.81074 9.64539 4.81074 9.98987C4.78926 10.4762 4.6604 10.8207 4.40268 11.0233Z" fill="#222222"/>
</svg>
