<svg width="16" height="20" viewBox="0 0 16 20" fill="none" xmlns="http://www.w3.org/2000/svg">
<path d="M9.12644 8.49129C8.9761 8.36971 8.80429 8.28866 8.611 8.22787C8.41771 8.18734 8.20295 8.16708 7.94523 8.16708H6.95731C6.7855 8.16708 6.67812 8.2076 6.59221 8.26839C6.52778 8.32918 6.48483 8.45077 6.48483 8.61287V11.2269C6.48483 11.3484 6.48483 11.4295 6.52778 11.5105C6.54926 11.5916 6.59221 11.6321 6.65664 11.6726C6.72107 11.7132 6.82845 11.7334 6.97879 11.7334H7.96671C8.13852 11.7334 8.28886 11.7132 8.43919 11.6929C8.56805 11.6726 8.69691 11.6321 8.82577 11.5916C8.95463 11.5308 9.06201 11.47 9.14791 11.389C9.27677 11.2674 9.38416 11.1458 9.47006 11.004C9.55597 10.8621 9.6204 10.7 9.66335 10.5176C9.7063 10.3353 9.72778 10.1529 9.72778 9.93C9.72778 9.30183 9.53449 8.81551 9.12644 8.49129ZM8.56805 11.004C8.50362 11.0445 8.43919 11.085 8.37476 11.1053C8.28885 11.1255 8.22442 11.1458 8.16 11.1458C8.09557 11.1458 7.98818 11.1458 7.85932 11.1458H7.27946V8.71419H7.7949C8.03114 8.71419 8.22443 8.73445 8.39624 8.79524C8.56805 8.83577 8.69691 8.95735 8.80429 9.13972C8.91167 9.32209 8.9761 9.58552 8.9761 9.93C8.95463 10.4568 8.82577 10.8013 8.56805 11.004Z" fill="#222222"/>
<path d="M15.957 3.99189L15.9356 3.97163V3.95137L11.8336 0.0810537C11.8336 0.0810537 11.8121 0.0810537 11.8121 0.0607903C11.8121 0.0607903 11.7906 0.0607903 11.7906 0.0405268C11.7262 0 11.6617 0 11.5758 0H1.4604C1.07383 0 0.708725 0.141844 0.451007 0.385005L0.42953 0.405268C0.171812 0.64843 0 1.01317 0 1.37791V18.6221C0 19.0071 0.171812 19.3516 0.42953 19.5947C0.687248 19.8379 1.07383 20 1.4604 20H14.5396C14.9477 20 15.3128 19.8379 15.5705 19.5947C15.8282 19.3516 16 18.9868 16 18.6221V4.19453C16 4.11348 15.9785 4.05268 15.957 3.99189ZM11.9839 1.45897L14.4107 3.74873H12.6282C12.4564 3.74873 12.2846 3.68794 12.1772 3.56636C12.0698 3.46505 11.9839 3.30294 11.9839 3.14083V1.45897ZM15.0765 18.6221C15.0765 18.7639 15.0121 18.8855 14.9047 18.9868C14.7973 19.0881 14.6685 19.1489 14.5181 19.1489H1.4604C1.31007 19.1489 1.18121 19.0881 1.07383 19.0071C0.966443 18.9058 0.92349 18.7842 0.92349 18.6424V1.35765C0.92349 1.21581 0.98792 1.09422 1.0953 0.992908L1.11678 0.972644C1.22416 0.891591 1.35302 0.8308 1.48188 0.8308H11.1034V3.12057C11.1034 3.52584 11.2752 3.89058 11.5758 4.17427C11.855 4.43769 12.2631 4.5998 12.6926 4.5998H15.0765V18.6221Z" fill="#222222"/>
<path d="M5.49872 8.44814C5.39134 8.34683 5.26248 8.28604 5.09067 8.24551C4.94034 8.20498 4.7041 8.18472 4.4249 8.18472H3.43698C3.26517 8.18472 3.13631 8.22525 3.07188 8.28604C2.98598 8.34683 2.9645 8.46841 2.9645 8.63051V11.3863C2.9645 11.5282 3.00746 11.6295 3.07188 11.7105C3.13631 11.7916 3.2437 11.8119 3.35108 11.8119C3.45846 11.8119 3.54437 11.7713 3.63027 11.6903C3.6947 11.6092 3.73766 11.5079 3.73766 11.3661V10.3529H4.44638C4.91886 10.3529 5.26248 10.2516 5.49872 10.0692C5.73497 9.88684 5.86382 9.60315 5.86382 9.23841C5.86382 9.07631 5.84235 8.9142 5.77792 8.77236C5.69201 8.65078 5.60611 8.5292 5.49872 8.44814ZM4.98329 9.58289C4.91886 9.66394 4.83295 9.72474 4.7041 9.76526C4.57524 9.80579 4.4249 9.82605 4.25309 9.82605H3.73766V8.73183H4.25309C4.59671 8.73183 4.81148 8.79262 4.94034 8.89394C5.04772 8.99525 5.09067 9.11683 5.09067 9.27894C5.0692 9.40052 5.04772 9.50184 4.98329 9.58289Z" fill="#222222"/>
<path d="M10.8653 8.14505C10.7365 8.16532 10.6505 8.18558 10.5861 8.22611C10.5217 8.24637 10.4573 8.30716 10.4358 8.36795C10.3928 8.42874 10.3928 8.50979 10.3928 8.63137V11.3669C10.3928 11.5088 10.4358 11.6303 10.5002 11.6911C10.5646 11.7722 10.672 11.7925 10.7794 11.7925C10.8868 11.7925 10.9727 11.7519 11.0586 11.6911C11.123 11.6101 11.166 11.5088 11.166 11.3669V10.1917H12.4331C12.5405 10.1917 12.6264 10.1714 12.6908 10.1106C12.7552 10.0701 12.7767 9.98902 12.7767 9.90796C12.7767 9.82691 12.7552 9.76612 12.6908 9.70533C12.6264 9.6648 12.5405 9.62428 12.4331 9.62428H11.166V8.71243H12.6693C12.7982 8.71243 12.8841 8.69216 12.9485 8.63137C13.013 8.57058 13.0344 8.50979 13.0344 8.42874C13.0344 8.34769 13.013 8.2869 12.9485 8.22611C12.8841 8.16532 12.7982 8.14505 12.6693 8.14505H10.8653Z" fill="#222222"/>
</svg>
