<svg width="16" height="18" viewBox="0 0 16 18" fill="none" xmlns="http://www.w3.org/2000/svg">
<path d="M8 10.6667V1.08337V10.6667Z" fill="#FFCC66"/>
<path d="M0.5 13.5V15.8334C0.5 16.75 1.25 17.5 2.16667 17.5H13.8333C14.2754 17.5 14.6993 17.3244 15.0118 17.0119C15.3244 16.6993 15.5 16.2754 15.5 15.8334V13.5H0.5Z" fill="#FFCC66"/>
<path d="M0.5 13.5V13C0.223858 13 0 13.2239 0 13.5H0.5ZM15.5 13.5H16C16 13.2239 15.7761 13 15.5 13V13.5ZM12.5202 6.85359L12.8738 6.50004L12.1667 5.79293L11.8131 6.14649L12.5202 6.85359ZM8 10.6667L7.64645 11.0203L8 11.3738L8.35355 11.0203L8 10.6667ZM4.18689 6.14649L3.83333 5.79293L3.12623 6.50004L3.47978 6.85359L4.18689 6.14649ZM8.5 1.08337V0.583374H7.5V1.08337H8.5ZM0 13.5V15.8334H1V13.5H0ZM0 15.8334C0 17.0262 0.973858 18 2.16667 18V17C1.52614 17 1 16.4739 1 15.8334H0ZM2.16667 18H13.8333V17H2.16667V18ZM13.8333 18C14.408 18 14.9591 17.7718 15.3654 17.3654L14.6583 16.6583C14.4395 16.8771 14.1428 17 13.8333 17V18ZM15.3654 17.3654C15.7717 16.9591 16 16.408 16 15.8334H15C15 16.1428 14.8771 16.4395 14.6583 16.6583L15.3654 17.3654ZM15.5 15.8334C16 15.8334 16 15.8334 16 15.8334C16 15.8334 16 15.8333 16 15.8333C16 15.8333 16 15.8333 16 15.8333C16 15.8332 16 15.8332 16 15.8332C16 15.8332 16 15.8331 16 15.8331C16 15.833 16 15.833 16 15.833C16 15.8329 16 15.8329 16 15.8328C16 15.8327 16 15.8327 16 15.8326C16 15.8326 16 15.8325 16 15.8324C16 15.8324 16 15.8323 16 15.8322C16 15.8321 16 15.832 16 15.832C16 15.8319 16 15.8318 16 15.8317C16 15.8316 16 15.8315 16 15.8314C16 15.8313 16 15.8312 16 15.8311C16 15.831 16 15.8309 16 15.8307C16 15.8306 16 15.8305 16 15.8304C16 15.8303 16 15.8301 16 15.83C16 15.8299 16 15.8297 16 15.8296C16 15.8294 16 15.8293 16 15.8292C16 15.829 16 15.8289 16 15.8287C16 15.8285 16 15.8284 16 15.8282C16 15.8281 16 15.8279 16 15.8277C16 15.8275 16 15.8274 16 15.8272C16 15.827 16 15.8268 16 15.8267C16 15.8265 16 15.8263 16 15.8261C16 15.8259 16 15.8257 16 15.8255C16 15.8253 16 15.8251 16 15.8249C16 15.8247 16 15.8245 16 15.8242C16 15.824 16 15.8238 16 15.8236C16 15.8234 16 15.8231 16 15.8229C16 15.8227 16 15.8224 16 15.8222C16 15.822 16 15.8217 16 15.8215C16 15.8212 16 15.821 16 15.8207C16 15.8205 16 15.8202 16 15.82C16 15.8197 16 15.8194 16 15.8192C16 15.8189 16 15.8186 16 15.8183C16 15.8181 16 15.8178 16 15.8175C16 15.8172 16 15.8169 16 15.8166C16 15.8163 16 15.8161 16 15.8158C16 15.8155 16 15.8152 16 15.8148C16 15.8145 16 15.8142 16 15.8139C16 15.8136 16 15.8133 16 15.813C16 15.8126 16 15.8123 16 15.812C16 15.8117 16 15.8113 16 15.811C16 15.8107 16 15.8103 16 15.81C16 15.8096 16 15.8093 16 15.8089C16 15.8086 16 15.8082 16 15.8079C16 15.8075 16 15.8072 16 15.8068C16 15.8064 16 15.8061 16 15.8057C16 15.8053 16 15.8049 16 15.8046C16 15.8042 16 15.8038 16 15.8034C16 15.803 16 15.8026 16 15.8022C16 15.8019 16 15.8015 16 15.8011C16 15.8007 16 15.8003 16 15.7998C16 15.7994 16 15.799 16 15.7986C16 15.7982 16 15.7978 16 15.7973C16 15.7969 16 15.7965 16 15.7961C16 15.7956 16 15.7952 16 15.7948C16 15.7943 16 15.7939 16 15.7934C16 15.793 16 15.7926 16 15.7921C16 15.7916 16 15.7912 16 15.7907C16 15.7903 16 15.7898 16 15.7893C16 15.7889 16 15.7884 16 15.7879C16 15.7875 16 15.787 16 15.7865C16 15.786 16 15.7855 16 15.7851C16 15.7846 16 15.7841 16 15.7836C16 15.7831 16 15.7826 16 15.7821C16 15.7816 16 15.7811 16 15.7806C16 15.7801 16 15.7795 16 15.779C16 15.7785 16 15.778 16 15.7775C16 15.7769 16 15.7764 16 15.7759C16 15.7754 16 15.7748 16 15.7743C16 15.7738 16 15.7732 16 15.7727C16 15.7721 16 15.7716 16 15.771C16 15.7705 16 15.7699 16 15.7694C16 15.7688 16 15.7682 16 15.7677C16 15.7671 16 15.7665 16 15.766C16 15.7654 16 15.7648 16 15.7642C16 15.7637 16 15.7631 16 15.7625C16 15.7619 16 15.7613 16 15.7607C16 15.7601 16 15.7595 16 15.7589C16 15.7583 16 15.7577 16 15.7571C16 15.7565 16 15.7559 16 15.7553C16 15.7547 16 15.7541 16 15.7534C16 15.7528 16 15.7522 16 15.7516C16 15.7509 16 15.7503 16 15.7497C16 15.749 16 15.7484 16 15.7478C16 15.7471 16 15.7465 16 15.7458C16 15.7452 16 15.7445 16 15.7439C16 15.7432 16 15.7425 16 15.7419C16 15.7412 16 15.7406 16 15.7399C16 15.7392 16 15.7385 16 15.7379C16 15.7372 16 15.7365 16 15.7358C16 15.7351 16 15.7345 16 15.7338C16 15.7331 16 15.7324 16 15.7317C16 15.731 16 15.7303 16 15.7296C16 15.7289 16 15.7282 16 15.7275C16 15.7268 16 15.726 16 15.7253C16 15.7246 16 15.7239 16 15.7232C16 15.7224 16 15.7217 16 15.721C16 15.7203 16 15.7195 16 15.7188C16 15.7181 16 15.7173 16 15.7166C16 15.7158 16 15.7151 16 15.7143C16 15.7136 16 15.7128 16 15.7121C16 15.7113 16 15.7105 16 15.7098C16 15.709 16 15.7083 16 15.7075C16 15.7067 16 15.7059 16 15.7052C16 15.7044 16 15.7036 16 15.7028C16 15.702 16 15.7012 16 15.7005C16 15.6997 16 15.6989 16 15.6981C16 15.6973 16 15.6965 16 15.6957C16 15.6949 16 15.6941 16 15.6933C16 15.6924 16 15.6916 16 15.6908C16 15.69 16 15.6892 16 15.6884C16 15.6875 16 15.6867 16 15.6859C16 15.685 16 15.6842 16 15.6834C16 15.6825 16 15.6817 16 15.6809C16 15.68 16 15.6792 16 15.6783C16 15.6775 16 15.6766 16 15.6758C16 15.6749 16 15.674 16 15.6732C16 15.6723 16 15.6714 16 15.6706C16 15.6697 16 15.6688 16 15.668C16 15.6671 16 15.6662 16 15.6653C16 15.6644 16 15.6636 16 15.6627C16 15.6618 16 15.6609 16 15.66C16 15.6591 16 15.6582 16 15.6573C16 15.6564 16 15.6555 16 15.6546C16 15.6537 16 15.6528 16 15.6518C16 15.6509 16 15.65 16 15.6491C16 15.6482 16 15.6473 16 15.6463C16 15.6454 16 15.6445 16 15.6435C16 15.6426 16 15.6417 16 15.6407C16 15.6398 16 15.6388 16 15.6379C16 15.6369 16 15.636 16 15.635C16 15.6341 16 15.6331 16 15.6322C16 15.6312 16 15.6303 16 15.6293C16 15.6283 16 15.6274 16 15.6264C16 15.6254 16 15.6244 16 15.6235C16 15.6225 16 15.6215 16 15.6205C16 15.6195 16 15.6185 16 15.6176C16 15.6166 16 15.6156 16 15.6146C16 15.6136 16 15.6126 16 15.6116C16 15.6106 16 15.6096 16 15.6086C16 15.6075 16 15.6065 16 15.6055C16 15.6045 16 15.6035 16 15.6025C16 15.6014 16 15.6004 16 15.5994C16 15.5984 16 15.5973 16 15.5963C16 15.5953 16 15.5942 16 15.5932C16 15.5921 16 15.5911 16 15.59C16 15.589 16 15.5879 16 15.5869C16 15.5858 16 15.5848 16 15.5837C16 15.5827 16 15.5816 16 15.5805C16 15.5795 16 15.5784 16 15.5773C16 15.5763 16 15.5752 16 15.5741C16 15.573 16 15.572 16 15.5709C16 15.5698 16 15.5687 16 15.5676C16 15.5665 16 15.5654 16 15.5643C16 15.5632 16 15.5621 16 15.561C16 15.5599 16 15.5588 16 15.5577C16 15.5566 16 15.5555 16 15.5544C16 15.5533 16 15.5522 16 15.551C16 15.5499 16 15.5488 16 15.5477C16 15.5465 16 15.5454 16 15.5443C16 15.5431 16 15.542 16 15.5409C16 15.5397 16 15.5386 16 15.5375C16 15.5363 16 15.5352 16 15.534C16 15.5329 16 15.5317 16 15.5306C16 15.5294 16 15.5282 16 15.5271C16 15.5259 16 15.5247 16 15.5236C16 15.5224 16 15.5212 16 15.5201C16 15.5189 16 15.5177 16 15.5165C16 15.5154 16 15.5142 16 15.513C16 15.5118 16 15.5106 16 15.5094C16 15.5082 16 15.507 16 15.5058C16 15.5046 16 15.5034 16 15.5022C16 15.501 16 15.4998 16 15.4986C16 15.4974 16 15.4962 16 15.495C16 15.4938 16 15.4925 16 15.4913C16 15.4901 16 15.4889 16 15.4876C16 15.4864 16 15.4852 16 15.484C16 15.4827 16 15.4815 16 15.4803C16 15.479 16 15.4778 16 15.4765C16 15.4753 16 15.474 16 15.4728C16 15.4715 16 15.4703 16 15.469C16 15.4678 16 15.4665 16 15.4652C16 15.464 16 15.4627 16 15.4615C16 15.4602 16 15.4589 16 15.4576C16 15.4564 16 15.4551 16 15.4538C16 15.4525 16 15.4513 16 15.45C16 15.4487 16 15.4474 16 15.4461C16 15.4448 16 15.4435 16 15.4422C16 15.4409 16 15.4396 16 15.4383C16 15.437 16 15.4357 16 15.4344C16 15.4331 16 15.4318 16 15.4305C16 15.4292 16 15.4279 16 15.4265C16 15.4252 16 15.4239 16 15.4226C16 15.4212 16 15.4199 16 15.4186C16 15.4173 16 15.4159 16 15.4146C16 15.4132 16 15.4119 16 15.4106C16 15.4092 16 15.4079 16 15.4065C16 15.4052 16 15.4038 16 15.4025C16 15.4011 16 15.3998 16 15.3984C16 15.3971 16 15.3957 16 15.3943C16 15.393 16 15.3916 16 15.3902C16 15.3889 16 15.3875 16 15.3861C16 15.3847 16 15.3834 16 15.382C16 15.3806 16 15.3792 16 15.3778C16 15.3764 16 15.3751 16 15.3737C16 15.3723 16 15.3709 16 15.3695C16 15.3681 16 15.3667 16 15.3653C16 15.3639 16 15.3625 16 15.3611C16 15.3597 16 15.3583 16 15.3568C16 15.3554 16 15.354 16 15.3526C16 15.3512 16 15.3497 16 15.3483C16 15.3469 16 15.3455 16 15.344C16 15.3426 16 15.3412 16 15.3397C16 15.3383 16 15.3369 16 15.3354C16 15.334 16 15.3325 16 15.3311C16 15.3297 16 15.3282 16 15.3268C16 15.3253 16 15.3238 16 15.3224C16 15.3209 16 15.3195 16 15.318C16 15.3166 16 15.3151 16 15.3136C16 15.3122 16 15.3107 16 15.3092C16 15.3077 16 15.3063 16 15.3048C16 15.3033 16 15.3018 16 15.3003C16 15.2989 16 15.2974 16 15.2959C16 15.2944 16 15.2929 16 15.2914C16 15.2899 16 15.2884 16 15.2869C16 15.2854 16 15.2839 16 15.2824C16 15.2809 16 15.2794 16 15.2779C16 15.2764 16 15.2749 16 15.2733C16 15.2718 16 15.2703 16 15.2688C16 15.2673 16 15.2657 16 15.2642C16 15.2627 16 15.2612 16 15.2596C16 15.2581 16 15.2566 16 15.255C16 15.2535 16 15.252 16 15.2504C16 15.2489 16 15.2473 16 15.2458C16 15.2442 16 15.2427 16 15.2411C16 15.2396 16 15.238 16 15.2365C16 15.2349 16 15.2334 16 15.2318C16 15.2302 16 15.2287 16 15.2271C16 15.2255 16 15.224 16 15.2224C16 15.2208 16 15.2192 16 15.2177C16 15.2161 16 15.2145 16 15.2129C16 15.2113 16 15.2098 16 15.2082C16 15.2066 16 15.205 16 15.2034C16 15.2018 16 15.2002 16 15.1986C16 15.197 16 15.1954 16 15.1938C16 15.1922 16 15.1906 16 15.189C16 15.1874 16 15.1858 16 15.1842C16 15.1826 16 15.1809 16 15.1793C16 15.1777 16 15.1761 16 15.1745C16 15.1728 16 15.1712 16 15.1696C16 15.168 16 15.1663 16 15.1647C16 15.1631 16 15.1614 16 15.1598C16 15.1581 16 15.1565 16 15.1549C16 15.1532 16 15.1516 16 15.1499C16 15.1483 16 15.1466 16 15.145C16 15.1433 16 15.1417 16 15.14C16 15.1384 16 15.1367 16 15.135C16 15.1334 16 15.1317 16 15.13C16 15.1284 16 15.1267 16 15.125C16 15.1233 16 15.1217 16 15.12C16 15.1183 16 15.1166 16 15.115C16 15.1133 16 15.1116 16 15.1099C16 15.1082 16 15.1065 16 15.1048C16 15.1031 16 15.1014 16 15.0997C16 15.0981 16 15.0964 16 15.0947C16 15.0929 16 15.0912 16 15.0895C16 15.0878 16 15.0861 16 15.0844C16 15.0827 16 15.081 16 15.0793C16 15.0776 16 15.0758 16 15.0741C16 15.0724 16 15.0707 16 15.0689C16 15.0672 16 15.0655 16 15.0638C16 15.062 16 15.0603 16 15.0586C16 15.0568 16 15.0551 16 15.0533C16 15.0516 16 15.0499 16 15.0481C16 15.0464 16 15.0446 16 15.0429C16 15.0411 16 15.0394 16 15.0376C16 15.0359 16 15.0341 16 15.0324C16 15.0306 16 15.0288 16 15.0271C16 15.0253 16 15.0235 16 15.0218C16 15.02 16 15.0182 16 15.0165C16 15.0147 16 15.0129 16 15.0111C16 15.0094 16 15.0076 16 15.0058C16 15.004 16 15.0022 16 15.0004C16 14.9987 16 14.9969 16 14.9951C16 14.9933 16 14.9915 16 14.9897C16 14.9879 16 14.9861 16 14.9843C16 14.9825 16 14.9807 16 14.9789C16 14.9771 16 14.9753 16 14.9735C16 14.9717 16 14.9698 16 14.968C16 14.9662 16 14.9644 16 14.9626C16 14.9608 16 14.9589 16 14.9571C16 14.9553 16 14.9535 16 14.9516C16 14.9498 16 14.948 16 14.9461C16 14.9443 16 14.9425 16 14.9406C16 14.9388 16 14.937 16 14.9351C16 14.9333 16 14.9314 16 14.9296C16 14.9277 16 14.9259 16 14.924C16 14.9222 16 14.9203 16 14.9185C16 14.9166 16 14.9148 16 14.9129C16 14.9111 16 14.9092 16 14.9073C16 14.9055 16 14.9036 16 14.9017C16 14.8999 16 14.898 16 14.8961C16 14.8942 16 14.8924 16 14.8905C16 14.8886 16 14.8867 16 14.8849C16 14.883 16 14.8811 16 14.8792C16 14.8773 16 14.8754 16 14.8735C16 14.8717 16 14.8698 16 14.8679C16 14.866 16 14.8641 16 14.8622C16 14.8603 16 14.8584 16 14.8565C16 14.8546 16 14.8527 16 14.8508C16 14.8488 16 14.8469 16 14.845C16 14.8431 16 14.8412 16 14.8393C16 14.8374 16 14.8354 16 14.8335C16 14.8316 16 14.8297 16 14.8278C16 14.8258 16 14.8239 16 14.822C16 14.82 16 14.8181 16 14.8162C16 14.8143 16 14.8123 16 14.8104C16 14.8084 16 14.8065 16 14.8046C16 14.8026 16 14.8007 16 14.7987C16 14.7968 16 14.7948 16 14.7929C16 14.7909 16 14.789 16 14.787C16 14.7851 16 14.7831 16 14.7812C16 14.7792 16 14.7772 16 14.7753C16 14.7733 16 14.7713 16 14.7694C16 14.7674 16 14.7654 16 14.7635C16 14.7615 16 14.7595 16 14.7576C16 14.7556 16 14.7536 16 14.7516C16 14.7496 16 14.7477 16 14.7457C16 14.7437 16 14.7417 16 14.7397C16 14.7377 16 14.7357 16 14.7338C16 14.7318 16 14.7298 16 14.7278C16 14.7258 16 14.7238 16 14.7218C16 14.7198 16 14.7178 16 14.7158C16 14.7138 16 14.7118 16 14.7098C16 14.7077 16 14.7057 16 14.7037C16 14.7017 16 14.6997 16 14.6977C16 14.6957 16 14.6936 16 14.6916C16 14.6896 16 14.6876 16 14.6856C16 14.6835 16 14.6815 16 14.6795C16 14.6775 16 14.6754 16 14.6734C16 14.6714 16 14.6693 16 14.6673C16 14.6653 16 14.6632 16 14.6612C16 14.6591 16 14.6571 16 14.655C16 14.653 16 14.651 16 14.6489C16 14.6469 16 14.6448 16 14.6428C16 14.6407 16 14.6387 16 14.6366C16 14.6345 16 14.6325 16 14.6304C16 14.6284 16 14.6263 16 14.6242C16 14.6222 16 14.6201 16 14.618C16 14.616 16 14.6139 16 14.6118C16 14.6098 16 14.6077 16 14.6056C16 14.6035 16 14.6015 16 14.5994C16 14.5973 16 14.5952 16 14.5931C16 14.5911 16 14.589 16 14.5869C16 14.5848 16 14.5827 16 14.5806C16 14.5785 16 14.5764 16 14.5743C16 14.5722 16 14.5702 16 14.5681C16 14.566 16 14.5639 16 14.5618C16 14.5597 16 14.5575 16 14.5554C16 14.5533 16 14.5512 16 14.5491C16 14.547 16 14.5449 16 14.5428C16 14.5407 16 14.5386 16 14.5364C16 14.5343 16 14.5322 16 14.5301C16 14.528 16 14.5258 16 14.5237C16 14.5216 16 14.5195 16 14.5173C16 14.5152 16 14.5131 16 14.511C16 14.5088 16 14.5067 16 14.5045C16 14.5024 16 14.5003 16 14.4981C16 14.496 16 14.4939 16 14.4917C16 14.4896 16 14.4874 16 14.4853C16 14.4831 16 14.481 16 14.4788C16 14.4767 16 14.4745 16 14.4724C16 14.4702 16 14.4681 16 14.4659C16 14.4638 16 14.4616 16 14.4594C16 14.4573 16 14.4551 16 14.453C16 14.4508 16 14.4486 16 14.4465C16 14.4443 16 14.4421 16 14.4399C16 14.4378 16 14.4356 16 14.4334C16 14.4312 16 14.4291 16 14.4269C16 14.4247 16 14.4225 16 14.4204C16 14.4182 16 14.416 16 14.4138C16 14.4116 16 14.4094 16 14.4072C16 14.405 16 14.4029 16 14.4007C16 14.3985 16 14.3963 16 14.3941C16 14.3919 16 14.3897 16 14.3875C16 14.3853 16 14.3831 16 14.3809C16 14.3787 16 14.3765 16 14.3743C16 14.3721 16 14.3699 16 14.3676C16 14.3654 16 14.3632 16 14.361C16 14.3588 16 14.3566 16 14.3544C16 14.3521 16 14.3499 16 14.3477C16 14.3455 16 14.3433 16 14.341C16 14.3388 16 14.3366 16 14.3344C16 14.3321 16 14.3299 16 14.3277C16 14.3254 16 14.3232 16 14.321C16 14.3187 16 14.3165 16 14.3143C16 14.312 16 14.3098 16 14.3076C16 14.3053 16 14.3031 16 14.3008C16 14.2986 16 14.2963 16 14.2941C16 14.2918 16 14.2896 16 14.2873C16 14.2851 16 14.2828 16 14.2806C16 14.2783 16 14.2761 16 14.2738C16 14.2716 16 14.2693 16 14.2671C16 14.2648 16 14.2625 16 14.2603C16 14.258 16 14.2557 16 14.2535C16 14.2512 16 14.2489 16 14.2467C16 14.2444 16 14.2421 16 14.2399C16 14.2376 16 14.2353 16 14.233C16 14.2308 16 14.2285 16 14.2262C16 14.2239 16 14.2216 16 14.2193C16 14.2171 16 14.2148 16 14.2125C16 14.2102 16 14.2079 16 14.2056C16 14.2033 16 14.2011 16 14.1988C16 14.1965 16 14.1942 16 14.1919C16 14.1896 16 14.1873 16 14.185C16 14.1827 16 14.1804 16 14.1781C16 14.1758 16 14.1735 16 14.1712C16 14.1689 16 14.1666 16 14.1643C16 14.162 16 14.1596 16 14.1573C16 14.155 16 14.1527 16 14.1504C16 14.1481 16 14.1458 16 14.1434C16 14.1411 16 14.1388 16 14.1365C16 14.1342 16 14.1318 16 14.1295C16 14.1272 16 14.1249 16 14.1226C16 14.1202 16 14.1179 16 14.1156C16 14.1132 16 14.1109 16 14.1086C16 14.1062 16 14.1039 16 14.1016C16 14.0992 16 14.0969 16 14.0946C16 14.0922 16 14.0899 16 14.0875C16 14.0852 16 14.0829 16 14.0805C16 14.0782 16 14.0758 16 14.0735C16 14.0711 16 14.0688 16 14.0664C16 14.0641 16 14.0617 16 14.0594C16 14.057 16 14.0547 16 14.0523C16 14.05 16 14.0476 16 14.0452C16 14.0429 16 14.0405 16 14.0382C16 14.0358 16 14.0334 16 14.0311C16 14.0287 16 14.0263 16 14.024C16 14.0216 16 14.0192 16 14.0169C16 14.0145 16 14.0121 16 14.0097C16 14.0074 16 14.005 16 14.0026C16 14.0002 16 13.9979 16 13.9955C16 13.9931 16 13.9907 16 13.9884C16 13.986 16 13.9836 16 13.9812C16 13.9788 16 13.9764 16 13.974C16 13.9717 16 13.9693 16 13.9669C16 13.9645 16 13.9621 16 13.9597C16 13.9573 16 13.9549 16 13.9525C16 13.9501 16 13.9477 16 13.9453C16 13.9429 16 13.9405 16 13.9381C16 13.9357 16 13.9333 16 13.9309C16 13.9285 16 13.9261 16 13.9237C16 13.9213 16 13.9189 16 13.9165C16 13.9141 16 13.9117 16 13.9093C16 13.9068 16 13.9044 16 13.902C16 13.8996 16 13.8972 16 13.8948C16 13.8923 16 13.8899 16 13.8875C16 13.8851 16 13.8827 16 13.8802C16 13.8778 16 13.8754 16 13.873C16 13.8705 16 13.8681 16 13.8657C16 13.8633 16 13.8608 16 13.8584C16 13.856 16 13.8535 16 13.8511C16 13.8487 16 13.8462 16 13.8438C16 13.8414 16 13.8389 16 13.8365C16 13.8341 16 13.8316 16 13.8292C16 13.8267 16 13.8243 16 13.8219C16 13.8194 16 13.817 16 13.8145C16 13.8121 16 13.8096 16 13.8072C16 13.8047 16 13.8023 16 13.7998C16 13.7974 16 13.7949 16 13.7925C16 13.79 16 13.7876 16 13.7851C16 13.7827 16 13.7802 16 13.7777C16 13.7753 16 13.7728 16 13.7704C16 13.7679 16 13.7654 16 13.763C16 13.7605 16 13.758 16 13.7556C16 13.7531 16 13.7506 16 13.7482C16 13.7457 16 13.7432 16 13.7408C16 13.7383 16 13.7358 16 13.7333C16 13.7309 16 13.7284 16 13.7259C16 13.7235 16 13.721 16 13.7185C16 13.716 16 13.7135 16 13.7111C16 13.7086 16 13.7061 16 13.7036C16 13.7011 16 13.6986 16 13.6962C16 13.6937 16 13.6912 16 13.6887C16 13.6862 16 13.6837 16 13.6812C16 13.6787 16 13.6763 16 13.6738C16 13.6713 16 13.6688 16 13.6663C16 13.6638 16 13.6613 16 13.6588C16 13.6563 16 13.6538 16 13.6513C16 13.6488 16 13.6463 16 13.6438C16 13.6413 16 13.6388 16 13.6363C16 13.6338 16 13.6313 16 13.6288C16 13.6263 16 13.6238 16 13.6213C16 13.6188 16 13.6162 16 13.6137C16 13.6112 16 13.6087 16 13.6062C16 13.6037 16 13.6012 16 13.5987C16 13.5961 16 13.5936 16 13.5911C16 13.5886 16 13.5861 16 13.5836C16 13.581 16 13.5785 16 13.576C16 13.5735 16 13.571 16 13.5684C16 13.5659 16 13.5634 16 13.5609C16 13.5583 16 13.5558 16 13.5533C16 13.5508 16 13.5482 16 13.5457C16 13.5432 16 13.5406 16 13.5381C16 13.5356 16 13.533 16 13.5305C16 13.528 16 13.5254 16 13.5229C16 13.5204 16 13.5178 16 13.5153C16 13.5127 16 13.5102 16 13.5077C16 13.5051 16 13.5026 16 13.5H15C15 13.5026 15 13.5051 15 13.5077C15 13.5102 15 13.5127 15 13.5153C15 13.5178 15 13.5204 15 13.5229C15 13.5254 15 13.528 15 13.5305C15 13.533 15 13.5356 15 13.5381C15 13.5406 15 13.5432 15 13.5457C15 13.5482 15 13.5508 15 13.5533C15 13.5558 15 13.5583 15 13.5609C15 13.5634 15 13.5659 15 13.5684C15 13.571 15 13.5735 15 13.576C15 13.5785 15 13.581 15 13.5836C15 13.5861 15 13.5886 15 13.5911C15 13.5936 15 13.5961 15 13.5987C15 13.6012 15 13.6037 15 13.6062C15 13.6087 15 13.6112 15 13.6137C15 13.6162 15 13.6188 15 13.6213C15 13.6238 15 13.6263 15 13.6288C15 13.6313 15 13.6338 15 13.6363C15 13.6388 15 13.6413 15 13.6438C15 13.6463 15 13.6488 15 13.6513C15 13.6538 15 13.6563 15 13.6588C15 13.6613 15 13.6638 15 13.6663C15 13.6688 15 13.6713 15 13.6738C15 13.6763 15 13.6787 15 13.6812C15 13.6837 15 13.6862 15 13.6887C15 13.6912 15 13.6937 15 13.6962C15 13.6986 15 13.7011 15 13.7036C15 13.7061 15 13.7086 15 13.7111C15 13.7135 15 13.716 15 13.7185C15 13.721 15 13.7235 15 13.7259C15 13.7284 15 13.7309 15 13.7333C15 13.7358 15 13.7383 15 13.7408C15 13.7432 15 13.7457 15 13.7482C15 13.7506 15 13.7531 15 13.7556C15 13.758 15 13.7605 15 13.763C15 13.7654 15 13.7679 15 13.7704C15 13.7728 15 13.7753 15 13.7777C15 13.7802 15 13.7827 15 13.7851C15 13.7876 15 13.79 15 13.7925C15 13.7949 15 13.7974 15 13.7998C15 13.8023 15 13.8047 15 13.8072C15 13.8096 15 13.8121 15 13.8145C15 13.817 15 13.8194 15 13.8219C15 13.8243 15 13.8267 15 13.8292C15 13.8316 15 13.8341 15 13.8365C15 13.8389 15 13.8414 15 13.8438C15 13.8462 15 13.8487 15 13.8511C15 13.8535 15 13.856 15 13.8584C15 13.8608 15 13.8633 15 13.8657C15 13.8681 15 13.8705 15 13.873C15 13.8754 15 13.8778 15 13.8802C15 13.8827 15 13.8851 15 13.8875C15 13.8899 15 13.8923 15 13.8948C15 13.8972 15 13.8996 15 13.902C15 13.9044 15 13.9068 15 13.9093C15 13.9117 15 13.9141 15 13.9165C15 13.9189 15 13.9213 15 13.9237C15 13.9261 15 13.9285 15 13.9309C15 13.9333 15 13.9357 15 13.9381C15 13.9405 15 13.9429 15 13.9453C15 13.9477 15 13.9501 15 13.9525C15 13.9549 15 13.9573 15 13.9597C15 13.9621 15 13.9645 15 13.9669C15 13.9693 15 13.9717 15 13.974C15 13.9764 15 13.9788 15 13.9812C15 13.9836 15 13.986 15 13.9884C15 13.9907 15 13.9931 15 13.9955C15 13.9979 15 14.0002 15 14.0026C15 14.005 15 14.0074 15 14.0097C15 14.0121 15 14.0145 15 14.0169C15 14.0192 15 14.0216 15 14.024C15 14.0263 15 14.0287 15 14.0311C15 14.0334 15 14.0358 15 14.0382C15 14.0405 15 14.0429 15 14.0452C15 14.0476 15 14.05 15 14.0523C15 14.0547 15 14.057 15 14.0594C15 14.0617 15 14.0641 15 14.0664C15 14.0688 15 14.0711 15 14.0735C15 14.0758 15 14.0782 15 14.0805C15 14.0829 15 14.0852 15 14.0875C15 14.0899 15 14.0922 15 14.0946C15 14.0969 15 14.0992 15 14.1016C15 14.1039 15 14.1062 15 14.1086C15 14.1109 15 14.1132 15 14.1156C15 14.1179 15 14.1202 15 14.1226C15 14.1249 15 14.1272 15 14.1295C15 14.1318 15 14.1342 15 14.1365C15 14.1388 15 14.1411 15 14.1434C15 14.1458 15 14.1481 15 14.1504C15 14.1527 15 14.155 15 14.1573C15 14.1596 15 14.162 15 14.1643C15 14.1666 15 14.1689 15 14.1712C15 14.1735 15 14.1758 15 14.1781C15 14.1804 15 14.1827 15 14.185C15 14.1873 15 14.1896 15 14.1919C15 14.1942 15 14.1965 15 14.1988C15 14.2011 15 14.2033 15 14.2056C15 14.2079 15 14.2102 15 14.2125C15 14.2148 15 14.2171 15 14.2193C15 14.2216 15 14.2239 15 14.2262C15 14.2285 15 14.2308 15 14.233C15 14.2353 15 14.2376 15 14.2399C15 14.2421 15 14.2444 15 14.2467C15 14.2489 15 14.2512 15 14.2535C15 14.2557 15 14.258 15 14.2603C15 14.2625 15 14.2648 15 14.2671C15 14.2693 15 14.2716 15 14.2738C15 14.2761 15 14.2783 15 14.2806C15 14.2828 15 14.2851 15 14.2873C15 14.2896 15 14.2918 15 14.2941C15 14.2963 15 14.2986 15 14.3008C15 14.3031 15 14.3053 15 14.3076C15 14.3098 15 14.312 15 14.3143C15 14.3165 15 14.3187 15 14.321C15 14.3232 15 14.3254 15 14.3277C15 14.3299 15 14.3321 15 14.3344C15 14.3366 15 14.3388 15 14.341C15 14.3433 15 14.3455 15 14.3477C15 14.3499 15 14.3521 15 14.3544C15 14.3566 15 14.3588 15 14.361C15 14.3632 15 14.3654 15 14.3676C15 14.3699 15 14.3721 15 14.3743C15 14.3765 15 14.3787 15 14.3809C15 14.3831 15 14.3853 15 14.3875C15 14.3897 15 14.3919 15 14.3941C15 14.3963 15 14.3985 15 14.4007C15 14.4029 15 14.405 15 14.4072C15 14.4094 15 14.4116 15 14.4138C15 14.416 15 14.4182 15 14.4204C15 14.4225 15 14.4247 15 14.4269C15 14.4291 15 14.4312 15 14.4334C15 14.4356 15 14.4378 15 14.4399C15 14.4421 15 14.4443 15 14.4465C15 14.4486 15 14.4508 15 14.453C15 14.4551 15 14.4573 15 14.4594C15 14.4616 15 14.4638 15 14.4659C15 14.4681 15 14.4702 15 14.4724C15 14.4745 15 14.4767 15 14.4788C15 14.481 15 14.4831 15 14.4853C15 14.4874 15 14.4896 15 14.4917C15 14.4939 15 14.496 15 14.4981C15 14.5003 15 14.5024 15 14.5045C15 14.5067 15 14.5088 15 14.511C15 14.5131 15 14.5152 15 14.5173C15 14.5195 15 14.5216 15 14.5237C15 14.5258 15 14.528 15 14.5301C15 14.5322 15 14.5343 15 14.5364C15 14.5386 15 14.5407 15 14.5428C15 14.5449 15 14.547 15 14.5491C15 14.5512 15 14.5533 15 14.5554C15 14.5575 15 14.5597 15 14.5618C15 14.5639 15 14.566 15 14.5681C15 14.5702 15 14.5722 15 14.5743C15 14.5764 15 14.5785 15 14.5806C15 14.5827 15 14.5848 15 14.5869C15 14.589 15 14.5911 15 14.5931C15 14.5952 15 14.5973 15 14.5994C15 14.6015 15 14.6035 15 14.6056C15 14.6077 15 14.6098 15 14.6118C15 14.6139 15 14.616 15 14.618C15 14.6201 15 14.6222 15 14.6242C15 14.6263 15 14.6284 15 14.6304C15 14.6325 15 14.6345 15 14.6366C15 14.6387 15 14.6407 15 14.6428C15 14.6448 15 14.6469 15 14.6489C15 14.651 15 14.653 15 14.655C15 14.6571 15 14.6591 15 14.6612C15 14.6632 15 14.6653 15 14.6673C15 14.6693 15 14.6714 15 14.6734C15 14.6754 15 14.6775 15 14.6795C15 14.6815 15 14.6835 15 14.6856C15 14.6876 15 14.6896 15 14.6916C15 14.6936 15 14.6957 15 14.6977C15 14.6997 15 14.7017 15 14.7037C15 14.7057 15 14.7077 15 14.7098C15 14.7118 15 14.7138 15 14.7158C15 14.7178 15 14.7198 15 14.7218C15 14.7238 15 14.7258 15 14.7278C15 14.7298 15 14.7318 15 14.7338C15 14.7357 15 14.7377 15 14.7397C15 14.7417 15 14.7437 15 14.7457C15 14.7477 15 14.7496 15 14.7516C15 14.7536 15 14.7556 15 14.7576C15 14.7595 15 14.7615 15 14.7635C15 14.7654 15 14.7674 15 14.7694C15 14.7713 15 14.7733 15 14.7753C15 14.7772 15 14.7792 15 14.7812C15 14.7831 15 14.7851 15 14.787C15 14.789 15 14.7909 15 14.7929C15 14.7948 15 14.7968 15 14.7987C15 14.8007 15 14.8026 15 14.8046C15 14.8065 15 14.8084 15 14.8104C15 14.8123 15 14.8143 15 14.8162C15 14.8181 15 14.82 15 14.822C15 14.8239 15 14.8258 15 14.8278C15 14.8297 15 14.8316 15 14.8335C15 14.8354 15 14.8374 15 14.8393C15 14.8412 15 14.8431 15 14.845C15 14.8469 15 14.8488 15 14.8508C15 14.8527 15 14.8546 15 14.8565C15 14.8584 15 14.8603 15 14.8622C15 14.8641 15 14.866 15 14.8679C15 14.8698 15 14.8717 15 14.8735C15 14.8754 15 14.8773 15 14.8792C15 14.8811 15 14.883 15 14.8849C15 14.8867 15 14.8886 15 14.8905C15 14.8924 15 14.8942 15 14.8961C15 14.898 15 14.8999 15 14.9017C15 14.9036 15 14.9055 15 14.9073C15 14.9092 15 14.9111 15 14.9129C15 14.9148 15 14.9166 15 14.9185C15 14.9203 15 14.9222 15 14.924C15 14.9259 15 14.9277 15 14.9296C15 14.9314 15 14.9333 15 14.9351C15 14.937 15 14.9388 15 14.9406C15 14.9425 15 14.9443 15 14.9461C15 14.948 15 14.9498 15 14.9516C15 14.9535 15 14.9553 15 14.9571C15 14.9589 15 14.9608 15 14.9626C15 14.9644 15 14.9662 15 14.968C15 14.9698 15 14.9717 15 14.9735C15 14.9753 15 14.9771 15 14.9789C15 14.9807 15 14.9825 15 14.9843C15 14.9861 15 14.9879 15 14.9897C15 14.9915 15 14.9933 15 14.9951C15 14.9969 15 14.9987 15 15.0004C15 15.0022 15 15.004 15 15.0058C15 15.0076 15 15.0094 15 15.0111C15 15.0129 15 15.0147 15 15.0165C15 15.0182 15 15.02 15 15.0218C15 15.0235 15 15.0253 15 15.0271C15 15.0288 15 15.0306 15 15.0324C15 15.0341 15 15.0359 15 15.0376C15 15.0394 15 15.0411 15 15.0429C15 15.0446 15 15.0464 15 15.0481C15 15.0499 15 15.0516 15 15.0533C15 15.0551 15 15.0568 15 15.0586C15 15.0603 15 15.062 15 15.0638C15 15.0655 15 15.0672 15 15.0689C15 15.0707 15 15.0724 15 15.0741C15 15.0758 15 15.0776 15 15.0793C15 15.081 15 15.0827 15 15.0844C15 15.0861 15 15.0878 15 15.0895C15 15.0912 15 15.0929 15 15.0947C15 15.0964 15 15.0981 15 15.0997C15 15.1014 15 15.1031 15 15.1048C15 15.1065 15 15.1082 15 15.1099C15 15.1116 15 15.1133 15 15.115C15 15.1166 15 15.1183 15 15.12C15 15.1217 15 15.1233 15 15.125C15 15.1267 15 15.1284 15 15.13C15 15.1317 15 15.1334 15 15.135C15 15.1367 15 15.1384 15 15.14C15 15.1417 15 15.1433 15 15.145C15 15.1466 15 15.1483 15 15.1499C15 15.1516 15 15.1532 15 15.1549C15 15.1565 15 15.1581 15 15.1598C15 15.1614 15 15.1631 15 15.1647C15 15.1663 15 15.168 15 15.1696C15 15.1712 15 15.1728 15 15.1745C15 15.1761 15 15.1777 15 15.1793C15 15.1809 15 15.1826 15 15.1842C15 15.1858 15 15.1874 15 15.189C15 15.1906 15 15.1922 15 15.1938C15 15.1954 15 15.197 15 15.1986C15 15.2002 15 15.2018 15 15.2034C15 15.205 15 15.2066 15 15.2082C15 15.2098 15 15.2113 15 15.2129C15 15.2145 15 15.2161 15 15.2177C15 15.2192 15 15.2208 15 15.2224C15 15.224 15 15.2255 15 15.2271C15 15.2287 15 15.2302 15 15.2318C15 15.2334 15 15.2349 15 15.2365C15 15.238 15 15.2396 15 15.2411C15 15.2427 15 15.2442 15 15.2458C15 15.2473 15 15.2489 15 15.2504C15 15.252 15 15.2535 15 15.255C15 15.2566 15 15.2581 15 15.2596C15 15.2612 15 15.2627 15 15.2642C15 15.2657 15 15.2673 15 15.2688C15 15.2703 15 15.2718 15 15.2733C15 15.2749 15 15.2764 15 15.2779C15 15.2794 15 15.2809 15 15.2824C15 15.2839 15 15.2854 15 15.2869C15 15.2884 15 15.2899 15 15.2914C15 15.2929 15 15.2944 15 15.2959C15 15.2974 15 15.2989 15 15.3003C15 15.3018 15 15.3033 15 15.3048C15 15.3063 15 15.3077 15 15.3092C15 15.3107 15 15.3122 15 15.3136C15 15.3151 15 15.3166 15 15.318C15 15.3195 15 15.3209 15 15.3224C15 15.3238 15 15.3253 15 15.3268C15 15.3282 15 15.3297 15 15.3311C15 15.3325 15 15.334 15 15.3354C15 15.3369 15 15.3383 15 15.3397C15 15.3412 15 15.3426 15 15.344C15 15.3455 15 15.3469 15 15.3483C15 15.3497 15 15.3512 15 15.3526C15 15.354 15 15.3554 15 15.3568C15 15.3583 15 15.3597 15 15.3611C15 15.3625 15 15.3639 15 15.3653C15 15.3667 15 15.3681 15 15.3695C15 15.3709 15 15.3723 15 15.3737C15 15.3751 15 15.3764 15 15.3778C15 15.3792 15 15.3806 15 15.382C15 15.3834 15 15.3847 15 15.3861C15 15.3875 15 15.3889 15 15.3902C15 15.3916 15 15.393 15 15.3943C15 15.3957 15 15.3971 15 15.3984C15 15.3998 15 15.4011 15 15.4025C15 15.4038 15 15.4052 15 15.4065C15 15.4079 15 15.4092 15 15.4106C15 15.4119 15 15.4132 15 15.4146C15 15.4159 15 15.4173 15 15.4186C15 15.4199 15 15.4212 15 15.4226C15 15.4239 15 15.4252 15 15.4265C15 15.4279 15 15.4292 15 15.4305C15 15.4318 15 15.4331 15 15.4344C15 15.4357 15 15.437 15 15.4383C15 15.4396 15 15.4409 15 15.4422C15 15.4435 15 15.4448 15 15.4461C15 15.4474 15 15.4487 15 15.45C15 15.4513 15 15.4525 15 15.4538C15 15.4551 15 15.4564 15 15.4576C15 15.4589 15 15.4602 15 15.4615C15 15.4627 15 15.464 15 15.4652C15 15.4665 15 15.4678 15 15.469C15 15.4703 15 15.4715 15 15.4728C15 15.474 15 15.4753 15 15.4765C15 15.4778 15 15.479 15 15.4803C15 15.4815 15 15.4827 15 15.484C15 15.4852 15 15.4864 15 15.4876C15 15.4889 15 15.4901 15 15.4913C15 15.4925 15 15.4938 15 15.495C15 15.4962 15 15.4974 15 15.4986C15 15.4998 15 15.501 15 15.5022C15 15.5034 15 15.5046 15 15.5058C15 15.507 15 15.5082 15 15.5094C15 15.5106 15 15.5118 15 15.513C15 15.5142 15 15.5154 15 15.5165C15 15.5177 15 15.5189 15 15.5201C15 15.5212 15 15.5224 15 15.5236C15 15.5247 15 15.5259 15 15.5271C15 15.5282 15 15.5294 15 15.5306C15 15.5317 15 15.5329 15 15.534C15 15.5352 15 15.5363 15 15.5375C15 15.5386 15 15.5397 15 15.5409C15 15.542 15 15.5431 15 15.5443C15 15.5454 15 15.5465 15 15.5477C15 15.5488 15 15.5499 15 15.551C15 15.5522 15 15.5533 15 15.5544C15 15.5555 15 15.5566 15 15.5577C15 15.5588 15 15.5599 15 15.561C15 15.5621 15 15.5632 15 15.5643C15 15.5654 15 15.5665 15 15.5676C15 15.5687 15 15.5698 15 15.5709C15 15.572 15 15.573 15 15.5741C15 15.5752 15 15.5763 15 15.5773C15 15.5784 15 15.5795 15 15.5805C15 15.5816 15 15.5827 15 15.5837C15 15.5848 15 15.5858 15 15.5869C15 15.5879 15 15.589 15 15.59C15 15.5911 15 15.5921 15 15.5932C15 15.5942 15 15.5953 15 15.5963C15 15.5973 15 15.5984 15 15.5994C15 15.6004 15 15.6014 15 15.6025C15 15.6035 15 15.6045 15 15.6055C15 15.6065 15 15.6075 15 15.6086C15 15.6096 15 15.6106 15 15.6116C15 15.6126 15 15.6136 15 15.6146C15 15.6156 15 15.6166 15 15.6176C15 15.6185 15 15.6195 15 15.6205C15 15.6215 15 15.6225 15 15.6235C15 15.6244 15 15.6254 15 15.6264C15 15.6274 15 15.6283 15 15.6293C15 15.6303 15 15.6312 15 15.6322C15 15.6331 15 15.6341 15 15.635C15 15.636 15 15.6369 15 15.6379C15 15.6388 15 15.6398 15 15.6407C15 15.6417 15 15.6426 15 15.6435C15 15.6445 15 15.6454 15 15.6463C15 15.6473 15 15.6482 15 15.6491C15 15.65 15 15.6509 15 15.6518C15 15.6528 15 15.6537 15 15.6546C15 15.6555 15 15.6564 15 15.6573C15 15.6582 15 15.6591 15 15.66C15 15.6609 15 15.6618 15 15.6627C15 15.6636 15 15.6644 15 15.6653C15 15.6662 15 15.6671 15 15.668C15 15.6688 15 15.6697 15 15.6706C15 15.6714 15 15.6723 15 15.6732C15 15.674 15 15.6749 15 15.6758C15 15.6766 15 15.6775 15 15.6783C15 15.6792 15 15.68 15 15.6809C15 15.6817 15 15.6825 15 15.6834C15 15.6842 15 15.685 15 15.6859C15 15.6867 15 15.6875 15 15.6884C15 15.6892 15 15.69 15 15.6908C15 15.6916 15 15.6924 15 15.6933C15 15.6941 15 15.6949 15 15.6957C15 15.6965 15 15.6973 15 15.6981C15 15.6989 15 15.6997 15 15.7005C15 15.7012 15 15.702 15 15.7028C15 15.7036 15 15.7044 15 15.7052C15 15.7059 15 15.7067 15 15.7075C15 15.7083 15 15.709 15 15.7098C15 15.7105 15 15.7113 15 15.7121C15 15.7128 15 15.7136 15 15.7143C15 15.7151 15 15.7158 15 15.7166C15 15.7173 15 15.7181 15 15.7188C15 15.7195 15 15.7203 15 15.721C15 15.7217 15 15.7224 15 15.7232C15 15.7239 15 15.7246 15 15.7253C15 15.726 15 15.7268 15 15.7275C15 15.7282 15 15.7289 15 15.7296C15 15.7303 15 15.731 15 15.7317C15 15.7324 15 15.7331 15 15.7338C15 15.7345 15 15.7351 15 15.7358C15 15.7365 15 15.7372 15 15.7379C15 15.7385 15 15.7392 15 15.7399C15 15.7406 15 15.7412 15 15.7419C15 15.7425 15 15.7432 15 15.7439C15 15.7445 15 15.7452 15 15.7458C15 15.7465 15 15.7471 15 15.7478C15 15.7484 15 15.749 15 15.7497C15 15.7503 15 15.7509 15 15.7516C15 15.7522 15 15.7528 15 15.7534C15 15.7541 15 15.7547 15 15.7553C15 15.7559 15 15.7565 15 15.7571C15 15.7577 15 15.7583 15 15.7589C15 15.7595 15 15.7601 15 15.7607C15 15.7613 15 15.7619 15 15.7625C15 15.7631 15 15.7637 15 15.7642C15 15.7648 15 15.7654 15 15.766C15 15.7665 15 15.7671 15 15.7677C15 15.7682 15 15.7688 15 15.7694C15 15.7699 15 15.7705 15 15.771C15 15.7716 15 15.7721 15 15.7727C15 15.7732 15 15.7738 15 15.7743C15 15.7748 15 15.7754 15 15.7759C15 15.7764 15 15.7769 15 15.7775C15 15.778 15 15.7785 15 15.779C15 15.7795 15 15.7801 15 15.7806C15 15.7811 15 15.7816 15 15.7821C15 15.7826 15 15.7831 15 15.7836C15 15.7841 15 15.7846 15 15.7851C15 15.7855 15 15.786 15 15.7865C15 15.787 15 15.7875 15 15.7879C15 15.7884 15 15.7889 15 15.7893C15 15.7898 15 15.7903 15 15.7907C15 15.7912 15 15.7916 15 15.7921C15 15.7926 15 15.793 15 15.7934C15 15.7939 15 15.7943 15 15.7948C15 15.7952 15 15.7956 15 15.7961C15 15.7965 15 15.7969 15 15.7973C15 15.7978 15 15.7982 15 15.7986C15 15.799 15 15.7994 15 15.7998C15 15.8003 15 15.8007 15 15.8011C15 15.8015 15 15.8019 15 15.8022C15 15.8026 15 15.803 15 15.8034C15 15.8038 15 15.8042 15 15.8046C15 15.8049 15 15.8053 15 15.8057C15 15.8061 15 15.8064 15 15.8068C15 15.8072 15 15.8075 15 15.8079C15 15.8082 15 15.8086 15 15.8089C15 15.8093 15 15.8096 15 15.81C15 15.8103 15 15.8107 15 15.811C15 15.8113 15 15.8117 15 15.812C15 15.8123 15 15.8126 15 15.813C15 15.8133 15 15.8136 15 15.8139C15 15.8142 15 15.8145 15 15.8148C15 15.8152 15 15.8155 15 15.8158C15 15.8161 15 15.8163 15 15.8166C15 15.8169 15 15.8172 15 15.8175C15 15.8178 15 15.8181 15 15.8183C15 15.8186 15 15.8189 15 15.8192C15 15.8194 15 15.8197 15 15.82C15 15.8202 15 15.8205 15 15.8207C15 15.821 15 15.8212 15 15.8215C15 15.8217 15 15.822 15 15.8222C15 15.8224 15 15.8227 15 15.8229C15 15.8231 15 15.8234 15 15.8236C15 15.8238 15 15.824 15 15.8242C15 15.8245 15 15.8247 15 15.8249C15 15.8251 15 15.8253 15 15.8255C15 15.8257 15 15.8259 15 15.8261C15 15.8263 15 15.8265 15 15.8267C15 15.8268 15 15.827 15 15.8272C15 15.8274 15 15.8275 15 15.8277C15 15.8279 15 15.8281 15 15.8282C15 15.8284 15 15.8285 15 15.8287C15 15.8289 15 15.829 15 15.8292C15 15.8293 15 15.8294 15 15.8296C15 15.8297 15 15.8299 15 15.83C15 15.8301 15 15.8303 15 15.8304C15 15.8305 15 15.8306 15 15.8307C15 15.8309 15 15.831 15 15.8311C15 15.8312 15 15.8313 15 15.8314C15 15.8315 15 15.8316 15 15.8317C15 15.8318 15 15.8319 15 15.832C15 15.832 15 15.8321 15 15.8322C15 15.8323 15 15.8324 15 15.8324C15 15.8325 15 15.8326 15 15.8326C15 15.8327 15 15.8327 15 15.8328C15 15.8329 15 15.8329 15 15.833C15 15.833 15 15.833 15 15.8331C15 15.8331 15 15.8332 15 15.8332C15 15.8332 15 15.8332 15 15.8333C15 15.8333 15 15.8333 15 15.8333C15 15.8333 15 15.8334 15 15.8334C15 15.8334 15 15.8334 15.5 15.8334ZM11.8131 6.14649L7.64645 10.3132L8.35355 11.0203L12.5202 6.85359L11.8131 6.14649ZM8.35355 10.3132L4.18689 6.14649L3.47978 6.85359L7.64645 11.0203L8.35355 10.3132ZM8.5 10.6667V1.08337H7.5V10.6667H8.5ZM15.5 13H0.5V14H15.5V13ZM16 15.8334V13.5H15V15.8334H16Z" fill="#222222"/>
</svg>
