<svg width="16" height="18" viewBox="0 0 16 18" fill="none" xmlns="http://www.w3.org/2000/svg">
<path d="M16 13.0021H0C0.63652 13.0021 1.24697 12.7492 1.69706 12.2991C2.14714 11.8489 2.4 11.2383 2.4 10.6017V6.60099C2.4 5.11552 2.99 3.69088 4.0402 2.64049C5.09041 1.5901 6.51479 1 8 1C9.48521 1 10.9096 1.5901 11.9598 2.64049C13.01 3.69088 13.6 5.11552 13.6 6.60099V10.6017C13.6 11.2383 13.8529 11.8489 14.3029 12.2991C14.753 12.7492 15.3635 13.0021 16 13.0021ZM9.384 16.2027C9.24335 16.4452 9.04147 16.6465 8.79858 16.7864C8.55569 16.9263 8.2803 17 8 17C7.7197 17 7.44431 16.9263 7.20142 16.7864C6.95853 16.6465 6.75665 16.4452 6.616 16.2027" fill="#FFCC66"/>
<path d="M9.384 16.2027C9.24335 16.4452 9.04147 16.6465 8.79858 16.7864C8.55569 16.9263 8.2803 17 8 17C7.7197 17 7.44431 16.9263 7.20142 16.7864C6.95853 16.6465 6.75665 16.4452 6.616 16.2027M16 13.0021H0C0.63652 13.0021 1.24697 12.7492 1.69706 12.2991C2.14714 11.8489 2.4 11.2383 2.4 10.6017V6.60099C2.4 5.11552 2.99 3.69088 4.0402 2.64049C5.09041 1.5901 6.51479 1 8 1C9.48521 1 10.9096 1.5901 11.9598 2.64049C13.01 3.69088 13.6 5.11552 13.6 6.60099V10.6017C13.6 11.2383 13.8529 11.8489 14.3029 12.2991C14.753 12.7492 15.3635 13.0021 16 13.0021V13.0021Z" stroke="#222222" stroke-linecap="square"/>
</svg>
